<svg width="855" height="590" viewBox="0 0 855 590" fill="none" xmlns="http://www.w3.org/2000/svg">
<rect width="855" height="590" rx="74" fill="#F26D22"/>
<path d="M97.8252 273V67.9091H233.618V103.66H141.187V152.529H224.605V188.28H141.187V273H97.8252Z" fill="white"/>
<path d="M262.784 273V67.9091H343.699C359.254 67.9091 372.506 70.8799 383.455 76.8217C394.404 82.6967 402.749 90.875 408.491 101.356C414.299 111.771 417.203 123.788 417.203 137.408C417.203 151.027 414.266 163.044 408.391 173.459C402.516 183.874 394.004 191.985 382.854 197.793C371.772 203.602 358.353 206.506 342.597 206.506H291.024V171.756H335.587C343.933 171.756 350.809 170.321 356.217 167.45C361.691 164.513 365.764 160.474 368.434 155.333C371.171 150.126 372.54 144.151 372.54 137.408C372.54 130.598 371.171 124.656 368.434 119.582C365.764 114.442 361.691 110.469 356.217 107.665C350.742 104.795 343.799 103.359 335.387 103.359H306.146V273H262.784Z" fill="white"/>
<path d="M457.035 273H410.569L481.369 67.9091H537.249L607.949 273H561.483L510.11 114.776H508.508L457.035 273ZM454.131 192.386H563.886V226.234H454.131V192.386Z" fill="white"/>
<path d="M632.634 273V67.9091H675.995V237.249H763.92V273H632.634Z" fill="white"/>
<path d="M98.2464 365V304.636H138.214V315.159H111.009V329.542H135.561V340.065H111.009V365H98.2464Z" fill="white"/>
<path d="M149.665 365H135.988L156.827 304.636H173.274L194.082 365H180.406L165.286 318.43H164.814L149.665 365ZM148.81 341.273H181.114V351.235H148.81V341.273Z" fill="white"/>
<path d="M201.348 365V304.636H225.517C229.958 304.636 233.662 305.295 236.629 306.611C239.596 307.928 241.826 309.755 243.32 312.093C244.813 314.412 245.56 317.084 245.56 320.11C245.56 322.468 245.088 324.541 244.145 326.33C243.202 328.098 241.905 329.552 240.254 330.692C238.623 331.812 236.757 332.608 234.654 333.079V333.669C236.953 333.767 239.105 334.415 241.109 335.614C243.133 336.813 244.774 338.493 246.031 340.654C247.289 342.796 247.918 345.35 247.918 348.317C247.918 351.52 247.122 354.379 245.53 356.895C243.958 359.39 241.63 361.365 238.545 362.819C235.46 364.273 231.657 365 227.138 365H201.348ZM214.11 354.566H224.515C228.071 354.566 230.665 353.888 232.296 352.532C233.927 351.157 234.742 349.329 234.742 347.05C234.742 345.38 234.34 343.906 233.534 342.629C232.728 341.352 231.579 340.35 230.085 339.622C228.612 338.895 226.853 338.532 224.81 338.532H214.11V354.566ZM214.11 329.896H223.572C225.32 329.896 226.873 329.591 228.229 328.982C229.604 328.353 230.685 327.469 231.471 326.33C232.276 325.19 232.679 323.824 232.679 322.233C232.679 320.051 231.903 318.293 230.351 316.957C228.818 315.62 226.637 314.952 223.807 314.952H214.11V329.896Z" fill="white"/>
<path d="M256.222 365V304.636H280.037C284.596 304.636 288.487 305.452 291.709 307.083C294.951 308.694 297.417 310.983 299.107 313.95C300.817 316.898 301.672 320.366 301.672 324.355C301.672 328.363 300.807 331.812 299.078 334.7C297.349 337.569 294.843 339.77 291.562 341.303C288.3 342.835 284.35 343.602 279.713 343.602H263.767V333.344H277.65C280.086 333.344 282.11 333.01 283.722 332.342C285.333 331.674 286.531 330.672 287.317 329.336C288.123 328 288.526 326.339 288.526 324.355C288.526 322.35 288.123 320.661 287.317 319.285C286.531 317.91 285.323 316.868 283.692 316.161C282.081 315.434 280.047 315.07 277.591 315.07H268.984V365H256.222ZM288.821 337.53L303.823 365H289.734L275.056 337.53H288.821Z" fill="white"/>
<path d="M323.453 304.636V365H310.691V304.636H323.453Z" fill="white"/>
<path d="M387.214 325.77H374.304C374.068 324.099 373.587 322.616 372.86 321.319C372.133 320.002 371.199 318.882 370.06 317.959C368.92 317.035 367.603 316.328 366.11 315.837C364.636 315.345 363.035 315.1 361.306 315.1C358.181 315.1 355.46 315.876 353.141 317.428C350.823 318.961 349.025 321.201 347.747 324.148C346.47 327.076 345.832 330.633 345.832 334.818C345.832 339.121 346.47 342.737 347.747 345.665C349.044 348.593 350.852 350.803 353.171 352.296C355.489 353.79 358.172 354.537 361.217 354.537C362.927 354.537 364.509 354.311 365.963 353.859C367.436 353.407 368.743 352.748 369.883 351.884C371.022 351 371.966 349.929 372.712 348.671C373.479 347.414 374.009 345.979 374.304 344.368L387.214 344.427C386.88 347.197 386.045 349.87 384.708 352.444C383.392 354.998 381.614 357.287 379.374 359.311C377.153 361.316 374.5 362.907 371.415 364.086C368.35 365.246 364.882 365.825 361.011 365.825C355.627 365.825 350.813 364.607 346.568 362.17C342.344 359.734 339.003 356.207 336.547 351.589C334.111 346.971 332.892 341.381 332.892 334.818C332.892 328.236 334.13 322.635 336.606 318.018C339.082 313.4 342.442 309.883 346.686 307.466C350.931 305.029 355.706 303.811 361.011 303.811C364.509 303.811 367.751 304.302 370.737 305.285C373.744 306.267 376.406 307.702 378.725 309.588C381.044 311.455 382.93 313.744 384.384 316.456C385.858 319.167 386.801 322.272 387.214 325.77Z" fill="white"/>
<path d="M405.635 365H391.959L412.797 304.636H429.244L450.053 365H436.377L421.257 318.43H420.785L405.635 365ZM404.78 341.273H437.084V351.235H404.78V341.273Z" fill="white"/>
<path d="M447.644 315.159V304.636H497.22V315.159H478.739V365H466.124V315.159H447.644Z" fill="white"/>
<path d="M558.099 334.818C558.099 341.401 556.851 347.001 554.356 351.619C551.88 356.236 548.5 359.763 544.217 362.2C539.953 364.617 535.158 365.825 529.833 365.825C524.469 365.825 519.655 364.607 515.391 362.17C511.127 359.734 507.757 356.207 505.281 351.589C502.805 346.971 501.567 341.381 501.567 334.818C501.567 328.236 502.805 322.635 505.281 318.018C507.757 313.4 511.127 309.883 515.391 307.466C519.655 305.029 524.469 303.811 529.833 303.811C535.158 303.811 539.953 305.029 544.217 307.466C548.5 309.883 551.88 313.4 554.356 318.018C556.851 322.635 558.099 328.236 558.099 334.818ZM545.16 334.818C545.16 330.554 544.521 326.958 543.244 324.031C541.986 321.103 540.208 318.882 537.909 317.369C535.61 315.856 532.918 315.1 529.833 315.1C526.748 315.1 524.056 315.856 521.757 317.369C519.458 318.882 517.67 321.103 516.393 324.031C515.135 326.958 514.506 330.554 514.506 334.818C514.506 339.082 515.135 342.678 516.393 345.606C517.67 348.534 519.458 350.754 521.757 352.267C524.056 353.78 526.748 354.537 529.833 354.537C532.918 354.537 535.61 353.78 537.909 352.267C540.208 350.754 541.986 348.534 543.244 345.606C544.521 342.678 545.16 339.082 545.16 334.818Z" fill="white"/>
<path d="M567.553 365V304.636H591.368C595.927 304.636 599.818 305.452 603.04 307.083C606.282 308.694 608.748 310.983 610.438 313.95C612.148 316.898 613.003 320.366 613.003 324.355C613.003 328.363 612.138 331.812 610.409 334.7C608.68 337.569 606.174 339.77 602.893 341.303C599.631 342.835 595.681 343.602 591.044 343.602H575.098V333.344H588.981C591.417 333.344 593.441 333.01 595.053 332.342C596.664 331.674 597.863 330.672 598.649 329.336C599.454 328 599.857 326.339 599.857 324.355C599.857 322.35 599.454 320.661 598.649 319.285C597.863 317.91 596.654 316.868 595.023 316.161C593.412 315.434 591.378 315.07 588.922 315.07H580.315V365H567.553ZM600.152 337.53L615.154 365H601.065L586.387 337.53H600.152Z" fill="white"/>
<path d="M654.768 321.997C654.532 319.619 653.52 317.772 651.732 316.456C649.944 315.139 647.517 314.481 644.452 314.481C642.369 314.481 640.61 314.776 639.176 315.365C637.741 315.935 636.641 316.731 635.875 317.752C635.128 318.774 634.755 319.934 634.755 321.23C634.715 322.311 634.941 323.254 635.433 324.06C635.944 324.866 636.641 325.563 637.525 326.153C638.41 326.723 639.431 327.224 640.591 327.656C641.75 328.068 642.988 328.422 644.304 328.717L649.728 330.014C652.361 330.603 654.778 331.389 656.978 332.372C659.179 333.354 661.085 334.563 662.696 335.997C664.308 337.432 665.555 339.121 666.44 341.067C667.344 343.012 667.805 345.242 667.825 347.757C667.805 351.452 666.862 354.654 664.995 357.366C663.148 360.058 660.476 362.151 656.978 363.644C653.5 365.118 649.305 365.855 644.393 365.855C639.52 365.855 635.275 365.108 631.66 363.615C628.064 362.121 625.254 359.911 623.23 356.983C621.226 354.035 620.175 350.39 620.076 346.048H632.426C632.564 348.072 633.143 349.762 634.165 351.118C635.207 352.454 636.592 353.466 638.321 354.153C640.07 354.821 642.045 355.156 644.245 355.156C646.407 355.156 648.283 354.841 649.875 354.212C651.486 353.584 652.734 352.709 653.618 351.589C654.503 350.469 654.945 349.182 654.945 347.728C654.945 346.372 654.542 345.232 653.736 344.309C652.95 343.385 651.791 342.599 650.258 341.951C648.745 341.303 646.888 340.713 644.688 340.182L638.115 338.532C633.026 337.294 629.007 335.359 626.06 332.725C623.112 330.092 621.648 326.546 621.668 322.085C621.648 318.43 622.621 315.237 624.586 312.506C626.571 309.775 629.292 307.643 632.75 306.11C636.209 304.577 640.139 303.811 644.54 303.811C649.02 303.811 652.931 304.577 656.271 306.11C659.631 307.643 662.245 309.775 664.111 312.506C665.978 315.237 666.941 318.401 667 321.997H654.768Z" fill="white"/>
<path d="M98.2464 443V382.636H122.062C126.64 382.636 130.541 383.511 133.763 385.26C136.986 386.989 139.442 389.396 141.132 392.481C142.841 395.546 143.696 399.083 143.696 403.092C143.696 407.1 142.831 410.637 141.102 413.702C139.373 416.768 136.868 419.155 133.586 420.865C130.324 422.574 126.375 423.429 121.737 423.429H106.558V413.201H119.674C122.13 413.201 124.154 412.779 125.746 411.934C127.357 411.069 128.556 409.881 129.342 408.368C130.148 406.835 130.55 405.076 130.55 403.092C130.55 401.087 130.148 399.339 129.342 397.845C128.556 396.332 127.357 395.163 125.746 394.338C124.135 393.493 122.091 393.07 119.615 393.07H111.009V443H98.2464Z" fill="white"/>
<path d="M189.271 382.636H202.033V421.837C202.033 426.239 200.982 430.09 198.879 433.391C196.797 436.692 193.879 439.267 190.126 441.114C186.372 442.941 182 443.855 177.009 443.855C171.999 443.855 167.617 442.941 163.864 441.114C160.111 439.267 157.193 436.692 155.11 433.391C153.027 430.09 151.986 426.239 151.986 421.837V382.636H164.748V420.747C164.748 423.046 165.249 425.089 166.251 426.877C167.273 428.666 168.707 430.071 170.555 431.092C172.402 432.114 174.553 432.625 177.009 432.625C179.485 432.625 181.637 432.114 183.464 431.092C185.311 430.071 186.736 428.666 187.738 426.877C188.76 425.089 189.271 423.046 189.271 420.747V382.636Z" fill="white"/>
<path d="M212.533 443V382.636H236.702C241.143 382.636 244.847 383.295 247.814 384.611C250.781 385.928 253.012 387.755 254.505 390.093C255.998 392.412 256.745 395.084 256.745 398.11C256.745 400.468 256.274 402.541 255.33 404.33C254.387 406.098 253.09 407.552 251.44 408.692C249.809 409.812 247.942 410.608 245.84 411.079V411.669C248.139 411.767 250.29 412.415 252.294 413.614C254.318 414.813 255.959 416.493 257.217 418.654C258.474 420.796 259.103 423.35 259.103 426.317C259.103 429.52 258.307 432.379 256.716 434.895C255.144 437.39 252.815 439.365 249.73 440.819C246.645 442.273 242.843 443 238.324 443H212.533ZM225.296 432.566H235.7C239.257 432.566 241.851 431.888 243.482 430.532C245.113 429.157 245.928 427.329 245.928 425.05C245.928 423.38 245.525 421.906 244.72 420.629C243.914 419.352 242.764 418.35 241.271 417.622C239.797 416.895 238.039 416.532 235.995 416.532H225.296V432.566ZM225.296 407.896H234.757C236.506 407.896 238.058 407.591 239.414 406.982C240.79 406.353 241.87 405.469 242.656 404.33C243.462 403.19 243.865 401.824 243.865 400.233C243.865 398.051 243.089 396.293 241.536 394.957C240.004 393.62 237.823 392.952 234.993 392.952H225.296V407.896Z" fill="white"/>
<path d="M267.407 443V382.636H280.17V432.478H306.048V443H267.407Z" fill="white"/>
<path d="M327.263 382.636V443H314.5V382.636H327.263Z" fill="white"/>
<path d="M391.023 403.77H378.113C377.878 402.099 377.396 400.616 376.669 399.319C375.942 398.002 375.009 396.882 373.869 395.959C372.729 395.035 371.413 394.328 369.92 393.837C368.446 393.345 366.844 393.1 365.115 393.1C361.991 393.1 359.269 393.876 356.951 395.428C354.632 396.961 352.834 399.201 351.557 402.148C350.28 405.076 349.641 408.633 349.641 412.818C349.641 417.121 350.28 420.737 351.557 423.665C352.854 426.593 354.662 428.803 356.98 430.296C359.299 431.79 361.981 432.537 365.027 432.537C366.736 432.537 368.318 432.311 369.772 431.859C371.246 431.407 372.553 430.748 373.692 429.884C374.832 429 375.775 427.929 376.522 426.671C377.288 425.414 377.819 423.979 378.113 422.368L391.023 422.427C390.689 425.197 389.854 427.87 388.518 430.444C387.201 432.998 385.423 435.287 383.183 437.311C380.963 439.316 378.31 440.907 375.225 442.086C372.16 443.246 368.691 443.825 364.82 443.825C359.436 443.825 354.622 442.607 350.378 440.17C346.153 437.734 342.813 434.207 340.357 429.589C337.92 424.971 336.702 419.381 336.702 412.818C336.702 406.236 337.94 400.635 340.416 396.018C342.892 391.4 346.252 387.883 350.496 385.466C354.74 383.029 359.515 381.811 364.82 381.811C368.318 381.811 371.56 382.302 374.547 383.285C377.553 384.267 380.216 385.702 382.535 387.588C384.853 389.455 386.74 391.744 388.194 394.456C389.667 397.167 390.611 400.272 391.023 403.77Z" fill="white"/>
<path d="M429.79 443H416.113L436.952 382.636H453.399L474.207 443H460.531L445.411 396.43H444.939L429.79 443ZM428.935 419.273H461.239V429.235H428.935V419.273Z" fill="white"/>
<path d="M531.896 403.77H518.987C518.751 402.099 518.269 400.616 517.542 399.319C516.815 398.002 515.882 396.882 514.742 395.959C513.603 395.035 512.286 394.328 510.793 393.837C509.319 393.345 507.717 393.1 505.988 393.1C502.864 393.1 500.143 393.876 497.824 395.428C495.505 396.961 493.707 399.201 492.43 402.148C491.153 405.076 490.514 408.633 490.514 412.818C490.514 417.121 491.153 420.737 492.43 423.665C493.727 426.593 495.535 428.803 497.853 430.296C500.172 431.79 502.854 432.537 505.9 432.537C507.609 432.537 509.191 432.311 510.645 431.859C512.119 431.407 513.426 430.748 514.565 429.884C515.705 429 516.648 427.929 517.395 426.671C518.161 425.414 518.692 423.979 518.987 422.368L531.896 422.427C531.562 425.197 530.727 427.87 529.391 430.444C528.074 432.998 526.296 435.287 524.056 437.311C521.836 439.316 519.183 440.907 516.098 442.086C513.033 443.246 509.565 443.825 505.694 443.825C500.31 443.825 495.495 442.607 491.251 440.17C487.026 437.734 483.686 434.207 481.23 429.589C478.793 424.971 477.575 419.381 477.575 412.818C477.575 406.236 478.813 400.635 481.289 396.018C483.765 391.4 487.125 387.883 491.369 385.466C495.613 383.029 500.388 381.811 505.694 381.811C509.191 381.811 512.433 382.302 515.42 383.285C518.426 384.267 521.089 385.702 523.408 387.588C525.726 389.455 527.613 391.744 529.067 394.456C530.54 397.167 531.484 400.272 531.896 403.77Z" fill="white"/>
<path d="M594.308 403.77H581.399C581.163 402.099 580.681 400.616 579.954 399.319C579.227 398.002 578.294 396.882 577.154 395.959C576.015 395.035 574.698 394.328 573.205 393.837C571.731 393.345 570.13 393.1 568.4 393.1C565.276 393.1 562.555 393.876 560.236 395.428C557.917 396.961 556.119 399.201 554.842 402.148C553.565 405.076 552.926 408.633 552.926 412.818C552.926 417.121 553.565 420.737 554.842 423.665C556.139 426.593 557.947 428.803 560.265 430.296C562.584 431.79 565.266 432.537 568.312 432.537C570.021 432.537 571.603 432.311 573.057 431.859C574.531 431.407 575.838 430.748 576.977 429.884C578.117 429 579.06 427.929 579.807 426.671C580.573 425.414 581.104 423.979 581.399 422.368L594.308 422.427C593.974 425.197 593.139 427.87 591.803 430.444C590.487 432.998 588.708 435.287 586.468 437.311C584.248 439.316 581.595 440.907 578.51 442.086C575.445 443.246 571.977 443.825 568.106 443.825C562.722 443.825 557.907 442.607 553.663 440.17C549.439 437.734 546.098 434.207 543.642 429.589C541.205 424.971 539.987 419.381 539.987 412.818C539.987 406.236 541.225 400.635 543.701 396.018C546.177 391.4 549.537 387.883 553.781 385.466C558.025 383.029 562.8 381.811 568.106 381.811C571.603 381.811 574.845 382.302 577.832 383.285C580.839 384.267 583.501 385.702 585.82 387.588C588.138 389.455 590.025 391.744 591.479 394.456C592.953 397.167 593.896 400.272 594.308 403.77Z" fill="white"/>
<path d="M603.46 443V382.636H644.135V393.159H616.223V407.542H642.042V418.065H616.223V432.478H644.253V443H603.46Z" fill="white"/>
<path d="M687.028 399.997C686.792 397.619 685.78 395.772 683.992 394.456C682.204 393.139 679.777 392.481 676.712 392.481C674.629 392.481 672.87 392.776 671.436 393.365C670.001 393.935 668.901 394.731 668.135 395.752C667.388 396.774 667.014 397.934 667.014 399.23C666.975 400.311 667.201 401.254 667.692 402.06C668.203 402.866 668.901 403.563 669.785 404.153C670.669 404.723 671.691 405.224 672.85 405.656C674.01 406.068 675.248 406.422 676.564 406.717L681.987 408.014C684.621 408.603 687.037 409.389 689.238 410.372C691.439 411.354 693.345 412.563 694.956 413.997C696.568 415.432 697.815 417.121 698.699 419.067C699.603 421.012 700.065 423.242 700.085 425.757C700.065 429.452 699.122 432.654 697.255 435.366C695.408 438.058 692.736 440.151 689.238 441.644C685.76 443.118 681.565 443.855 676.653 443.855C671.779 443.855 667.535 443.108 663.92 441.615C660.324 440.121 657.514 437.911 655.49 434.983C653.486 432.035 652.434 428.39 652.336 424.048H664.686C664.824 426.072 665.403 427.762 666.425 429.118C667.466 430.454 668.852 431.466 670.581 432.153C672.33 432.821 674.304 433.156 676.505 433.156C678.667 433.156 680.543 432.841 682.135 432.212C683.746 431.584 684.994 430.709 685.878 429.589C686.762 428.469 687.204 427.182 687.204 425.728C687.204 424.372 686.802 423.232 685.996 422.309C685.21 421.385 684.051 420.599 682.518 419.951C681.005 419.303 679.148 418.713 676.947 418.182L670.375 416.532C665.285 415.294 661.267 413.359 658.32 410.725C655.372 408.092 653.908 404.546 653.928 400.085C653.908 396.43 654.881 393.237 656.846 390.506C658.83 387.775 661.552 385.643 665.01 384.11C668.469 382.577 672.398 381.811 676.8 381.811C681.28 381.811 685.19 382.577 688.531 384.11C691.891 385.643 694.504 387.775 696.371 390.506C698.238 393.237 699.201 396.401 699.26 399.997H687.028Z" fill="white"/>
<path d="M741.415 399.997C741.179 397.619 740.168 395.772 738.379 394.456C736.591 393.139 734.165 392.481 731.099 392.481C729.016 392.481 727.258 392.776 725.823 393.365C724.389 393.935 723.289 394.731 722.522 395.752C721.776 396.774 721.402 397.934 721.402 399.23C721.363 400.311 721.589 401.254 722.08 402.06C722.591 402.866 723.289 403.563 724.173 404.153C725.057 404.723 726.079 405.224 727.238 405.656C728.397 406.068 729.635 406.422 730.952 406.717L736.375 408.014C739.008 408.603 741.425 409.389 743.626 410.372C745.827 411.354 747.733 412.563 749.344 413.997C750.955 415.432 752.203 417.121 753.087 419.067C753.991 421.012 754.453 423.242 754.472 425.757C754.453 429.452 753.51 432.654 751.643 435.366C749.796 438.058 747.124 440.151 743.626 441.644C740.148 443.118 735.953 443.855 731.04 443.855C726.167 443.855 721.923 443.108 718.307 441.615C714.711 440.121 711.902 437.911 709.878 434.983C707.873 432.035 706.822 428.39 706.724 424.048H719.074C719.211 426.072 719.791 427.762 720.813 429.118C721.854 430.454 723.239 431.466 724.969 432.153C726.717 432.821 728.692 433.156 730.893 433.156C733.054 433.156 734.931 432.841 736.523 432.212C738.134 431.584 739.382 430.709 740.266 429.589C741.15 428.469 741.592 427.182 741.592 425.728C741.592 424.372 741.189 423.232 740.384 422.309C739.598 421.385 738.438 420.599 736.906 419.951C735.393 419.303 733.536 418.713 731.335 418.182L724.762 416.532C719.673 415.294 715.655 413.359 712.707 410.725C709.76 408.092 708.296 404.546 708.315 400.085C708.296 396.43 709.268 393.237 711.233 390.506C713.218 387.775 715.94 385.643 719.398 384.11C722.856 382.577 726.786 381.811 731.188 381.811C735.668 381.811 739.578 382.577 742.919 384.11C746.279 385.643 748.892 387.775 750.759 390.506C752.625 393.237 753.588 396.401 753.647 399.997H741.415Z" fill="white"/>
<path d="M98.2464 521V460.636H111.009V510.478H136.887V521H98.2464Z" fill="white"/>
<path d="M158.102 460.636V521H145.339V460.636H158.102Z" fill="white"/>
<path d="M221.862 481.77H208.952C208.717 480.099 208.235 478.616 207.508 477.319C206.781 476.002 205.848 474.882 204.708 473.959C203.568 473.035 202.252 472.328 200.758 471.837C199.285 471.345 197.683 471.1 195.954 471.1C192.83 471.1 190.108 471.876 187.79 473.428C185.471 474.961 183.673 477.201 182.396 480.148C181.119 483.076 180.48 486.633 180.48 490.818C180.48 495.121 181.119 498.737 182.396 501.665C183.693 504.593 185.501 506.803 187.819 508.296C190.138 509.79 192.82 510.537 195.866 510.537C197.575 510.537 199.157 510.311 200.611 509.859C202.085 509.407 203.391 508.748 204.531 507.884C205.671 507 206.614 505.929 207.361 504.671C208.127 503.414 208.658 501.979 208.952 500.368L221.862 500.427C221.528 503.197 220.693 505.87 219.357 508.444C218.04 510.998 216.262 513.287 214.022 515.311C211.802 517.316 209.149 518.907 206.064 520.086C202.998 521.246 199.53 521.825 195.659 521.825C190.275 521.825 185.461 520.607 181.217 518.17C176.992 515.734 173.652 512.207 171.196 507.589C168.759 502.971 167.541 497.381 167.541 490.818C167.541 484.236 168.779 478.635 171.255 474.018C173.73 469.4 177.09 465.883 181.335 463.466C185.579 461.029 190.354 459.811 195.659 459.811C199.157 459.811 202.399 460.302 205.386 461.285C208.392 462.267 211.055 463.702 213.373 465.588C215.692 467.455 217.579 469.744 219.033 472.456C220.506 475.167 221.449 478.272 221.862 481.77Z" fill="white"/>
<path d="M231.014 521V460.636H271.689V471.159H243.776V485.542H269.596V496.065H243.776V510.478H271.807V521H231.014Z" fill="white"/>
<path d="M332.325 460.636V521H321.301L295.04 483.007H294.598V521H281.835V460.636H293.036L319.091 498.599H319.621V460.636H332.325Z" fill="white"/>
<path d="M375.616 477.997C375.38 475.619 374.368 473.772 372.58 472.456C370.792 471.139 368.365 470.481 365.299 470.481C363.217 470.481 361.458 470.776 360.024 471.365C358.589 471.935 357.489 472.731 356.722 473.752C355.976 474.774 355.602 475.934 355.602 477.23C355.563 478.311 355.789 479.254 356.28 480.06C356.791 480.866 357.489 481.563 358.373 482.153C359.257 482.723 360.279 483.224 361.438 483.656C362.598 484.068 363.836 484.422 365.152 484.717L370.575 486.014C373.208 486.603 375.625 487.389 377.826 488.372C380.027 489.354 381.933 490.563 383.544 491.997C385.155 493.432 386.403 495.121 387.287 497.067C388.191 499.012 388.653 501.242 388.673 503.757C388.653 507.452 387.71 510.654 385.843 513.366C383.996 516.058 381.324 518.151 377.826 519.644C374.348 521.118 370.153 521.855 365.241 521.855C360.367 521.855 356.123 521.108 352.508 519.615C348.912 518.121 346.102 515.911 344.078 512.983C342.074 510.035 341.022 506.39 340.924 502.048H353.274C353.411 504.072 353.991 505.762 355.013 507.118C356.054 508.454 357.44 509.466 359.169 510.153C360.918 510.821 362.892 511.156 365.093 511.156C367.255 511.156 369.131 510.841 370.723 510.212C372.334 509.584 373.582 508.709 374.466 507.589C375.35 506.469 375.792 505.182 375.792 503.728C375.792 502.372 375.39 501.232 374.584 500.309C373.798 499.385 372.639 498.599 371.106 497.951C369.593 497.303 367.736 496.713 365.535 496.182L358.962 494.532C353.873 493.294 349.855 491.359 346.907 488.725C343.96 486.092 342.496 482.546 342.516 478.085C342.496 474.43 343.469 471.237 345.434 468.506C347.418 465.775 350.14 463.643 353.598 462.11C357.056 460.577 360.986 459.811 365.388 459.811C369.868 459.811 373.778 460.577 377.119 462.11C380.479 463.643 383.092 465.775 384.959 468.506C386.826 471.237 387.788 474.401 387.847 477.997H375.616Z" fill="white"/>
<path d="M397.257 521V460.636H437.932V471.159H410.02V485.542H435.839V496.065H410.02V510.478H438.05V521H397.257Z" fill="white"/>
</svg>
